<svg xmlns="http://www.w3.org/2000/svg" viewBox="0 0 298 548.22"><defs><style>.cls-1{fill:#808285;opacity:0.1;}</style></defs><g id="Layer_2" data-name="Layer 2"><g id="Layer_2-2" data-name="Layer 2"><path class="cls-1" d="M39.32,0l-.07,1.81-1.78-.16L0,298.72l1.12-1.16L9,302l6,1.92-8,7.82,14.39,9.84-1.12,3.8,12.42,2.38-1.81,9.71L47,349.1l4,18.39,9.2,3.26L63.6,381.9,69.9,383l10.87,9.09,3.62,12.14H95.07l4.3,18.82L111,435.37l7.71,7.31.12,9.4,14,13.57,12.52,8.27L148.77,495,149,521.5l12.91,13.88,4.57,12.46,48.61.38,82.88-1L284.07,58.55l-2.33-13.22,1.77-1.48-.64-29.68.28-1.08L282.86,12,211,11.17,124.83,8.54,39.33,0Z"/></g></g></svg>